<svg width="750" height="750" viewBox="0 0 750 750" fill="none" xmlns="http://www.w3.org/2000/svg">
<path d="M343.301 56.5806C216.484 69.7756 116.232 149.614 74.4966 270.648C46.5116 351.808 54.4686 445.854 95.8056 522.522C121.996 571.097 163.278 615.002 208.288 642.149C216.696 647.22 218.819 648.127 219.55 646.96C221.29 644.187 235.608 608.85 235.305 608.078C235.137 607.649 229.824 603.816 223.499 599.562C192.348 578.606 168.219 554.262 147.377 522.76C123.4 486.52 108.954 447.057 103.363 402.522C101.539 387.998 101.815 353.253 103.874 338.109C114.466 260.213 155.066 192.403 217.499 148.333C249.927 125.443 291.641 108.355 330.499 102.043C355.922 97.9126 390.214 97.4496 411.499 100.948C415.43 101.595 417.327 101.52 418.148 100.687C418.78 100.046 426.352 91.6466 434.975 82.0216L450.652 64.5216L446.425 63.2916C439.568 61.2956 412.949 57.1466 399.999 56.0546C384.098 54.7136 359.01 54.9456 343.301 56.5806Z" fill="black"/>
<path d="M495.405 101.197C491.332 111.744 487.859 120.713 487.689 121.128C487.518 121.544 492.693 124.606 499.189 127.934C552.577 155.286 593.379 196.356 618.993 248.522C634.377 279.855 643.315 311.555 646.565 346.319C648.067 362.384 647.256 397.669 645.054 412.022C637.764 459.562 617.611 505.263 586.846 544.022C578.225 554.884 556.483 576.642 545.499 585.4C520.107 605.646 491.06 621.35 460.174 631.529C410.799 647.801 359.671 649.77 309.584 637.327C303.072 635.71 298.685 635.074 297.878 635.631C295.085 637.558 268.543 670.463 269.248 671.124C270.479 672.278 286.032 676.922 300.999 680.604C376.57 699.197 460.11 688.148 528.499 650.516C603.139 609.443 660.023 535.454 681.53 451.469C689.603 419.941 691.946 398.98 691.22 364.779C690.667 338.714 689.179 325.214 684.468 303.522C666.399 220.317 612.541 144.612 540.334 100.922C528.476 93.7476 505.685 82.0216 503.597 82.0216C503.165 82.0216 499.479 90.6506 495.405 101.197Z" fill="black"/>
<path d="M513.499 10.3726C509.924 14.3616 493.499 32.4566 476.999 50.5846C460.499 68.7116 435.749 96.1056 421.999 111.459C408.249 126.813 378.774 159.433 356.499 183.949C316.491 227.98 265.933 284.338 229.011 326.064C218.567 337.866 199.892 358.706 187.511 372.374C175.129 386.043 163.718 398.756 162.152 400.624L159.305 404.022H243.902C290.43 404.022 328.499 404.213 328.499 404.445C328.499 404.92 316.325 435.013 298.531 478.522C292.007 494.472 273.389 540.597 257.157 581.022C240.925 621.447 224.207 662.847 220.007 673.022C197.951 726.452 189.499 747.067 189.499 747.436C189.499 752.283 219.257 716.4 330.821 577.022C358.336 542.647 383.133 511.78 385.924 508.428C388.715 505.076 395.523 496.751 401.052 489.928C406.581 483.105 418.056 469.038 426.552 458.669C435.048 448.3 443.124 438.388 444.499 436.641C454.482 423.963 544.798 314.051 555.405 301.672C556.94 299.88 556.476 299.841 540.494 300.412C531.422 300.736 505.999 301.234 483.999 301.519C461.999 301.804 435.787 302.319 425.749 302.663C415.711 303.007 407.499 303.029 407.499 302.713C407.499 302.141 423.368 260.305 433.744 233.522C436.727 225.822 444.374 206.022 450.738 189.522C457.102 173.022 466 150.072 470.513 138.522C475.025 126.972 481.778 109.422 485.518 99.5216C489.259 89.6216 497.13 69.3716 503.01 54.5216C517.858 17.0196 522.499 4.96956 522.499 3.92256C522.499 1.55556 519.428 3.75656 513.499 10.3726Z" fill="#D8A83B"/>
</svg>
